<svg xmlns="http://www.w3.org/2000/svg"><symbol id="velociraptor" viewBox="0 0 256 256"><path d="M127.7 1.7C57.8 1.7 1.2 58.5 1.2 128.7s56.6 127 126.5 127 126.5-56.9 126.5-127-56.7-127-126.5-127zm109.4 115.9h-7.4c-3 0-6-.1-9.1-.4l-9-1-9.1-1a91 91 0 0 0-9.1-.4 125.8 125.8 0 0 0-16.2 1 71.2 71.2 0 0 0-15.8 3.7l-30.3 11a2.4 2.4 0 0 0-1.2 1.5 22.9 22.9 0 0 0-.8 2.8 28.6 28.6 0 0 0-.7 2.8 6 6 0 0 1-.6 2 3 3 0 0 0 1.4 1.3l2.4 1.2 2.9 1.1a11.7 11.7 0 0 1 2.7 1.5 7.6 7.6 0 0 1 2.1 1.8 3.8 3.8 0 0 1 .8 2.5 1.6 1.6 0 0 1-.4 1.2l-1.3.9a5.9 5.9 0 0 1-1.6.7l-1.6.8-1.2 1.1a2.3 2.3 0 0 0-.5 1.5 3.9 3.9 0 0 0 .8 2.5 10.8 10.8 0 0 0 2 1.6l2.3 1.3a8.7 8.7 0 0 1 2.2 1.7 24.3 24.3 0 0 1 2 3.5 25.3 25.3 0 0 1 1.2 3.6 27 27 0 0 1 .8 3.9c.2 1.3.1 2.6.3 3.9l1.3 1.3v7.2h.8l1 .2 1 .2.6.2a5.5 5.5 0 0 0 .1.9 5.1 5.1 0 0 1-.2.9 6.1 6.1 0 0 1-.3 1.3l-.6.9a1.1 1.1 0 0 1-.9.3h-5.2c-.2 0-.5-.5-1-.8l-1.5-.9-1.5-.7c-.5-.4-.9-.9-1.2-.9h-6.1c0-1.7.2-2.3.7-2.9a3.5 3.5 0 0 1 1.6-1.6 7.3 7.3 0 0 1 2.1-.6l2.1-.4a3.4 3.4 0 0 0 1.6-.6 1.4 1.4 0 0 0 .7-1.4v-.6l-.8-1.8-1.3-2.4a20.7 20.7 0 0 0-1.5-2.5 9.7 9.7 0 0 0-1.6-1.8l-1.2-.8-1.9-.9-1.7-1.1a1.7 1.7 0 0 1-1-1.1c-.3-.8-.6-1.8-.9-2.9a30.1 30.1 0 0 0-1.1-3.2 7.8 7.8 0 0 0-1.7-2.6 3.9 3.9 0 0 0-2.9-1 20.6 20.6 0 0 0-6 .8 23.2 23.2 0 0 0-5.7 2.2 24.3 24.3 0 0 0-4.9 3.5 19 19 0 0 0-4 4.5c0 .1-.1.2-.3.2h-.2v-.3l-.2-.3c0-.2-.1-.4-.1-.6l-.2-.6c-.1-.2-.1-.3-.2-.4h-.2a1.5 1.5 0 0 0-1.1.4l-.9 1.2-.8 1.3a2.9 2.9 0 0 1-.8 1 5.2 5.2 0 0 1-.7-1.6c0-.5-.1-1-.1-1.7a14.5 14.5 0 0 1 .4-2.9l.9-2.8a10.6 10.6 0 0 0 .9-2.5 15.9 15.9 0 0 0 .4-2.8h-5c0-1.6.2-1.8.6-2.3a5.9 5.9 0 0 1 3.8-2.5 7.6 7.6 0 0 1 2.1-.3 15.1 15.1 0 0 1 3 .2l2.9.4 2.9.5 2.9.2h2.3a2.8 2.8 0 0 0-1.7-1.3l-2.5-.5-2.7-.2c-.9 0-1.6.2-2.2-.2l-3.9-2.2h-.3a16.1 16.1 0 0 0-3.1 0 10.8 10.8 0 0 1-3.1.2 7.3 7.3 0 0 1-3-.7l-2.7-1.4-2.6-1.3a4.7 4.7 0 0 0-2.8-.7v6.1l1.6-.2.9-.3.9-.5.9-.7h.6v2.7l2-.6c0 .1.2.2.2.5s.2.4.2.5a5.2 5.2 0 0 1-1.4 3.8 18.2 18.2 0 0 1-3.2 2.9 28.5 28.5 0 0 0-4.6-1.2l-4.7-.7v-7.8l-1.8.6-2 1a6.2 6.2 0 0 0-1.9 1.2c-.5.4-.9.8-.9 1.1v6.9a9.3 9.3 0 0 0 2.9-.3 4.2 4.2 0 0 0 1.8-.6l1.3-.6 1.2-.2h.3a2.2 2.2 0 0 1 .3.8c.2.3.3.8.5 1.2s.3.9.4 1.3a3.8 3.8 0 0 1 .1 1 4.6 4.6 0 0 1-.4 1.9 8.1 8.1 0 0 1-1 1.8 6.5 6.5 0 0 1-1.6 1.3 3.2 3.2 0 0 1-1.8.6h-1l-3-.4a23.3 23.3 0 0 1-3.6-.8 9.3 9.3 0 0 1-3.2-1.2 2.5 2.5 0 0 1-1.5-2.1v-12.1l.9-.8a20.2 20.2 0 0 0 1.9-1.6l2.3-2.2a18.8 18.8 0 0 0 2.4-2.5 21.1 21.1 0 0 0 1.8-2.7 4.7 4.7 0 0 0 .7-2.5 3.7 3.7 0 0 0-1.1-2.8 9.5 9.5 0 0 0-2.8-2 17.3 17.3 0 0 0-3.2-1.4l-2.6-.9-1.3-9.1a13.1 13.1 0 0 0-.6-2.7 9.6 9.6 0 0 0-1.1-2.8 7.2 7.2 0 0 0-1.8-2.1 3.9 3.9 0 0 0-2.6-.9 12.5 12.5 0 0 0-3.6.5 13 13 0 0 0-3.2 1.5l-1.6 1-2.6 1.5-2.9 1.7c-1 .7-2 1.2-3 1.8l-2.5 1.6c-.8.5-1.3 1.2-1.6 1.2h-1l-1.8-.3a7.9 7.9 0 0 1-2-.4 3.1 3.1 0 0 1-1.4-.7c-.4-.3-.3-.8-.3-1.4v-1.9c0-.6-.2-.9 0-.9h1.6a.5.5 0 0 1 0-.4c0-.3.1-.5.1-.8a3.7 3.7 0 0 0 .2-.9c.1-.3.1-.4 0-.5a2 2 0 0 0-.8-.8l-.9-.5c-.2-.2-.5-.4-.6-.7a1.9 1.9 0 0 1-.3-1.2 5 5 0 0 1 .2-1.2 7.5 7.5 0 0 1 .7-1.2c.3-.3.2-.6.6-.8l.8-.4v.8a4.7 4.7 0 0 0 .6 1.5c.1.5.6.7 1.2.7a1.5 1.5 0 0 0 1.1-.5 4.8 4.8 0 0 0 .9-1.1 5.2 5.2 0 0 0 .6-1.6c.2-.5.3.2.3-1.4H21.7a1.5 1.5 0 0 1-.8-.5l-1.1-.7a3.2 3.2 0 0 1-.9-.8 1.8 1.8 0 0 1-.4-1 4.8 4.8 0 0 1 1.1-3.2 10 10 0 0 1 2.6-1.8l3.2-1a15.8 15.8 0 0 0 2.8-.8l2.2-.9 3.4-1.6 3.3-1.6a8.8 8.8 0 0 1 2.1-1h13.6a7 7 0 0 1 3.8 1 10.7 10.7 0 0 1 3.1 2.5 29.1 29.1 0 0 1 2.6 3.3c.7 1.2 1.5 2.3 2.2 3.3a14.2 14.2 0 0 0 2.3 2.5 3.5 3.5 0 0 0 2.5 1 .9.9 0 0 0 .8-.4.9.9 0 0 1 .8-.4 2.8 2.8 0 0 1 1.5.4l1.5.7 1.5.7a4.5 4.5 0 0 0 1.6.3l4.1-.2 4.1-.5 4-.4 4.1-.3c2.6 0 5 .2 7.3.4a40.8 40.8 0 0 1 7.2 1.6c1.6.6 3.3 1.2 5 2l5.1 2.2a45.1 45.1 0 0 0 5.2 1.7 20 20 0 0 0 5.4.7h2.6l12.8-2.7c4.2-.9 8.5-1.6 12.7-2.3s8.6-1.2 12.9-1.6 8.6-.5 13-.5h8.8c1.9.1 3.6.7 5.1.9l36.2 7.3h11.6c-.8 0-1.8 1-3.1 1.3a17.5 17.5 0 0 1-4 .3z"/></symbol><symbol id="brachiosaurus" viewBox="0 0 256 256"><path d="M59.4 166.5a31.9 31.9 0 0 0-7.7.9c0 .3.3.6.8 1a12.3 12.3 0 0 0 2 1l2.6 1 2.8.8 2.4.6 1.4.2h2.2a10.9 10.9 0 0 0 2.5-.4l2.3-.8a4.2 4.2 0 0 0 1.7-1.5 27.7 27.7 0 0 0-6.3-2.2 29.9 29.9 0 0 0-6.7-.6z"/><path d="M128 1.2a126.5 126.5 0 1 0 126.5 126.5A126.5 126.5 0 0 0 128 1.2zM210.5 71v.3a9.5 9.5 0 0 1-.1 1.4q-.2.9-.3 2.1c-.2.7-.2 1.4-.4 2s-.2 1.1-.2 1.4a5.1 5.1 0 0 0-.9 1.8 11.7 11.7 0 0 0-.6 2l-.6 1.9c-.2.7-.5 1.4-.7 2s-1.1 2.1-1.7 3-1.1 2-1.6 3l-19.9 27.6a.8.8 0 0 1-.2.6l-.3.3-.3.2-.4.5-1.6 2.3c-.7.9-1.4 1.8-2.1 2.9l-2.2 3.2-1.9 3.2a19.4 19.4 0 0 0-1.4 3 5.6 5.6 0 0 0-.5 2.3c0 .3-.3.5-.2.7s.1.4.1.7a.5.5 0 0 0-.2.4c0 .3.1.4.2.4v10.1a1.8 1.8 0 0 1-.2 1c-.2.4-.2.8-.4 1.2a6.7 6.7 0 0 1-.6 1.2c-.1.4-.4.8-.4 1.1v1.6a.8.8 0 0 1 0 .5c-.2.2-.2.5-.4.8s-.6.5-.7.8l-.6.4v.4c0 .1.7.2.8.4s.9.3.9.4v2.8a19.7 19.7 0 0 1-.6 3.5c-.2 1.2-.6 2.3-.8 3.5s-.5 2.3-.6 3.5a20.9 20.9 0 0 0-.4 3.5q0 3.2.3 6.3a41 41 0 0 0 1.1 6.1 27.8 27.8 0 0 0 2.1 5.7 22.2 22.2 0 0 0 3.4 5.2 3.6 3.6 0 0 1-1.2.8l-1.7.7-1.7.5h-1.9l-1-.3-1.2-.3-1-.2h-.7l-.8-.3-.6-.5a.9.9 0 0 1-.3-.7c.1-1.3.1-2.6.1-4l-.3-4.3c-.1-1.4-.3-2.8-.5-4.2s-.4-2.8-.5-4.1-.1-.3-.2-.6l-.3-.6c.1-1.1.1-2.3.2-3.6s-.1-2.7-.2-4a25.7 25.7 0 0 0-.6-4 9.4 9.4 0 0 0-1.4-3.4 3.7 3.7 0 0 0-1.4 1.8 17.3 17.3 0 0 0-.8 2.7c-.2 1-.2 1.9-.4 2.9s-1 1.7-1 2.3v1.5a17.6 17.6 0 0 1 0 2.3v3.7c0 2.8-.2 5.6-.1 8.3a75.4 75.4 0 0 0 .6 8.1l.4.4a2.1 2.1 0 0 1 .8.6 2.7 2.7 0 0 1 .8.7.7.7 0 0 1 .4.6c0 .2-.3.5-.9.8a7.5 7.5 0 0 1-1.8.8l-2 .9-1.3.4h-.2l-4.7-2.6a.6.6 0 0 1-.2-.5v-.6a29.9 29.9 0 0 1 0-3 14.5 14.5 0 0 0 .1-3 23.1 23.1 0 0 0-.3-3.7c-.1-1.3-.4-2.5-.6-3.7s-.4-2.5-.5-3.8a23.4 23.4 0 0 1-.3-3.8 32.2 32.2 0 0 1 .1-3.3 23.6 23.6 0 0 1 .4-2.8 27.4 27.4 0 0 1 .5-2.8c.2-1 .4-2 .6-3.2a.8.8 0 0 0 0-.7 2.3 2.3 0 0 1-.1-.7 6.2 6.2 0 0 0-1.9.2l-1.8.5-1.9.6-1.9.5-1.4.2h-1.1c-.3.1-.6-.1-.9-.1h-2.9a44.2 44.2 0 0 1-5.2-.1H121a4 4 0 0 0-2.3.8v5.2c-.1 1.7-.1 3.4-.2 5.1l-.3 5.1c0 1.7-.1 3.4-.1 5.1v5.1c0 .5.7 1.1 1.1 1.7a11.5 11.5 0 0 1 1.4 1.7 6.6 6.6 0 0 1 1.2 1.7 3.1 3.1 0 0 1 .5 1.8v.4a10.7 10.7 0 0 1-4 .4c0 .4 0 .7-.3.8h-2.7a7.8 7.8 0 0 1-2.2-.3 3.7 3.7 0 0 1-1.8-.8 2.3 2.3 0 0 1-.8-1.9c0-.4.1-.8.1-1.3a5.6 5.6 0 0 1 .4-1.2l.3-1.3a7.1 7.1 0 0 0 .1-1.4 22.5 22.5 0 0 0-.3-3.8 33.7 33.7 0 0 0-.6-3.6c-.3-1.2-.6-2.7-.8-3.8a28.1 28.1 0 0 1-.8-4h-.4c-.2 0-.4.8-.5.9l-.4.7-.3.5a18.8 18.8 0 0 1-1.6 2.3 22.8 22.8 0 0 0-2.5 4.7 7.7 7.7 0 0 0-.4 2.7 4.5 4.5 0 0 0 .3 1.6 10.1 10.1 0 0 1 .7 1.5l.8 1.1.3.6a.8.8 0 0 1-.4.7l-1 .5-1.3.3h-2.6l-1.7-.2a1.6 1.6 0 0 1-1.1-.4c-.3-.1-.5-.4-.7-.8a9.1 9.1 0 0 1-.6-1.6 7.5 7.5 0 0 0-.5-1.6 9.9 9.9 0 0 1-.2-1.7 3.4 3.4 0 0 1 .4-1.5c.2-.5.6-1 .9-1.6l1.1-1.5a10.9 10.9 0 0 0 .8-1.5l2.4-5.8c.8-2 1.6-3.9 2.5-5.9a4.3 4.3 0 0 1 .4-.7l.6-.8a4.3 4.3 0 0 0 .4-.7 2.4 2.4 0 0 0 .2-.8c0-.4-.1-.6-.4-.7h-1.2l-9 2.5a3.2 3.2 0 0 1-1.3.5l-1.7.4a4.4 4.4 0 0 0-1.6.6 1 1 0 0 0-.7 1 1.2 1.2 0 0 0 .3.9 1.3 1.3 0 0 0 .6.7l.8.5.8.6-.4.5-1.3-.9-1.4-.8-1.5-.6a3.9 3.9 0 0 0-1.5-.2 12.8 12.8 0 0 0-3.8.5l-3.9 1.1-4.1 1.1a15.1 15.1 0 0 1-4.2.5 17.7 17.7 0 0 1-3.4-.4 37 37 0 0 1-4.9-1.1 56 56 0 0 1-5.4-1.7 32.9 32.9 0 0 1-5-2.3 15.2 15.2 0 0 1-3.6-2.6 4.3 4.3 0 0 1-1.5-3 4.1 4.1 0 0 1 1.2-3.2 6.2 6.2 0 0 1 2.7-1.7 13.4 13.4 0 0 1 3.5-.1 31.1 31.1 0 0 1 3.3.3h4a2.2 2.2 0 0 1 1.2-.2h2.4a21.3 21.3 0 0 0 2.5.3l2 .3 1.9.5 1.8.9a9.6 9.6 0 0 0 1.8.7 6.5 6.5 0 0 0 2 .4 8.6 8.6 0 0 0 3.9-1.1 46.4 46.4 0 0 0 4.2-2.5l3.8-3.1c1.3-1.1 2.3-2 3.3-2.7l1.8-1.3a11.8 11.8 0 0 0 1.9-1.1l1.7-1.2 1.5-1.7a48.3 48.3 0 0 0 2.6-4.5 28.9 28.9 0 0 1 2.7-4.4 5.3 5.3 0 0 1 1.3-1.3l1.5-1 1.6-.9 1.6-.9a33.2 33.2 0 0 0 3.6-2.6l3.5-2.9 3.3-3c1.1-1 2.2-2 3.4-2.9a28.8 28.8 0 0 1 3.8-2.2l3.9-1.8 2.5-1.3 2.4-1.3 2.6-1.1a12 12 0 0 1 2.7-.8l22.2-3.2a11 11 0 0 0 3.5-1.1 24.6 24.6 0 0 0 3.4-2.2 28.1 28.1 0 0 0 3.1-2.9 28.9 28.9 0 0 0 2.9-3.2l2.7-3.2 2.3-2.8 7.7-9 .3-.2.5-.6.6-.5.2-.3 2.1-3.2.2-.2.4-.2.4-.2.2-.2.4-.4.4-.4 1.2-1.7 1.4-2 1.3-1.9.9-1.7a9.5 9.5 0 0 0 .9-2.1c.2-.7.5-1.4.7-2.1s.5-1.4.7-2.2 1-1.4 1-2.1V64a5.2 5.2 0 0 0-1-3.1 13.4 13.4 0 0 0-2.7-2.6 10.6 10.6 0 0 0-3.3-1.8 10.9 10.9 0 0 0-3.2-.7 27.9 27.9 0 0 0-5.8.7 12.4 12.4 0 0 0-5.1 2.6l-1.4 1.4-1.6 1.9-1.8 2-1.8 1.8a6.8 6.8 0 0 1-1.8 1.3 3.2 3.2 0 0 1-1.8.6 1.6 1.6 0 0 1-1.1-.5 1.4 1.4 0 0 1-.6-1.1V66l.2-.5c0-.2.1-.4.1-.7s.1-.5.2-.8v-.4a4.4 4.4 0 0 0-.2-1.7l-.6-1.4-.6-1.2a2.2 2.2 0 0 1-.2-1.2 1 1 0 0 0 .8-.3.9.9 0 0 0 .4-.6l.5-.7a1 1 0 0 1 .8-.6c0-.1.2-.1.5-.1h2.3a1.2 1.2 0 0 0 .9-.3 2.3 2.3 0 0 1 .7-.7h.4l.3.4a1 1 0 0 0 .1.4c.1-.2.2-.3.4-.3l.7-.4 1.1-.9 1.3-.8 1.4-.8 1.1-.6.5-.4a12 12 0 0 1 2.1-1.2l1.8-.7 1.9-.2h6.4l1.5.5 1.5.3 1.5.3 1.6.5a17.7 17.7 0 0 1 4.5 3 18 18 0 0 1 3.2 4.2 21.1 21.1 0 0 1 1.7 5 25 25 0 0 1 .5 5.5V71z"/></symbol><symbol id="micropachycephalosaurus" viewBox="0 0 256 256"><path d="M131.8 150.7c-.2 0-.4.2-.4.6-.4 0-.5.2-.5.5s.1.6.5.6.4-.2.4-.6c.4 0 .6-.2.6-.5a.5.5 0 0 0-.6-.6zm1.5-.8a2.4 2.4 0 0 0-.9.8h.3a2 2 0 0 0 1.1-.3 2.4 2.4 0 0 0 .9-.8h-.3a2.3 2.3 0 0 0-1.1.3zm3-2.6c-.2 0-.4.2-.4.6h-.1c-.3 0-.4.2-.4.5h-.2c-.3 0-.4.2-.4.6s.1.6.4.6.5-.2.5-.6h.1c.3 0 .5-.2.5-.6.4 0 .5-.1.5-.5s-.1-.6-.5-.6zm23.2-5.8l-1.3 1.4a1.7 1.7 0 0 0 .8 1l1.1.2a2.4 2.4 0 0 0 1.4-.5 4.3 4.3 0 0 0 1.1-1.2 6.9 6.9 0 0 0 .7-1.5c.2-.5.4-1.1.5-1.1h-3.4c-.2 0-.5 1-.9 1.7z"/><path d="M127.3 1.2a126.5 126.5 0 1 0 126.5 126.5A126.5 126.5 0 0 0 127.3 1.2zm94.9 75l-1.6.4H217a26.8 26.8 0 0 0-5.2 1.2 14.2 14.2 0 0 0-3.7 1.6 9.8 9.8 0 0 0-2.4 2.1 12.6 12.6 0 0 0-1.8 3c-.5 1.1-1 2.4-1.5 3.8s-1 3.2-1.6 5.1l-1.2 3.6c-.4 1.1-.8 2.1-1.3 3.2s-.9 2-1.4 3.1l-1.7 3.2a31 31 0 0 1-2.7 4c-.9 1.3-1.9 2.5-2.9 3.7l-3.1 3.5a40.8 40.8 0 0 0-3.1 3.9 9.4 9.4 0 0 0-1.4 2.6l-.9 2.5a8.3 8.3 0 0 1-1.4 2.2 5.2 5.2 0 0 1-2.5 1.6 4 4 0 0 1-1.3.6l-2 .7-2 .6-1.4.4a3 3 0 0 1 .2 2 2 2 0 0 1-.9.9l-1.2.6a1.8 1.8 0 0 0-.9 1l-2.2 6.7a2.7 2.7 0 0 1-1.1 1.5l-1.7.8a13.6 13.6 0 0 1-2 .2 11.5 11.5 0 0 1-1.9-.1h-1.9c-.3-.1-.5-.3-.5-.8a.5.5 0 0 1 .2-.4l.2-.3.2-.3c.1-.1.1-.2.1-.4a15 15 0 0 0-3.4 1.6l-3.4 2.1-3.3 2.1-3.3 2-.9.4-1.2.6a3.4 3.4 0 0 0-.9.8 1.4 1.4 0 0 0-.5 1 .4.4 0 0 0 .1.3v.3l1.8 1.6a15.4 15.4 0 0 0 1.9 1.7l2 1.6 2.1 1.3 1.8.6 1.9.6 1.9.6a5.6 5.6 0 0 1 1.7.9 5.7 5.7 0 0 1 1.3 1.4l1.1 1.5 1.2 1.5a5.5 5.5 0 0 0 1.4 1.2 3.8 3.8 0 0 0 1.7.6l2.1.7a5.9 5.9 0 0 1 1.7 1 2.1 2.1 0 0 1 .8 1.7.8.8 0 0 1-.1.3v.2l-5.6 1.1-1.1.4a2.1 2.1 0 0 1-1.2.3h-.5l-1.1-.6-1.8-1-1.7-1-1-.8-.2-.2-.3-.5-.4-.5c-.1-.2-.2-.3-.2-.5l-2.2-4.4-1.2-.5-1.8-.7-2.1-1-2.1-.9-1.8-.8-1.1-.6-2.8-1.6a17.1 17.1 0 0 1-2.6-2.1 10.5 10.5 0 0 1-2-2.7 7.1 7.1 0 0 1-1-3.1l-.6.2-.6.3-.9.7-1.7 1.2-2.1 1.4-2.1 1.3-1.7 1.1-1 .5-5.9 3.5a20.4 20.4 0 0 0-4.5 3.4 19.7 19.7 0 0 0-3.7 4.4c-.8 1.7-.7 3.9-2.3 6.6v1.6a10.1 10.1 0 0 0 1.1 4.4 11.3 11.3 0 0 0 2.1 2.6 8.7 8.7 0 0 0 2.7 1.4l2.5.9a9.3 9.3 0 0 1 2 1 5.3 5.3 0 0 1 .8 2h-13.3l-.2-.4-.3-.2h-.5l-.6-.3a3.4 3.4 0 0 1-1.3-1.6 7.1 7.1 0 0 1-.4-2.1 8.6 8.6 0 0 1 .2-2.3c0-.8.2-1.5.2-2.1v-1.4a8.2 8.2 0 0 1 .3-1.8c.2-.8.3-1.7.6-2.7s.4-2 .7-3.1.6-2.2.8-3.1.5-1.9.7-2.7l.4-1.8a11.8 11.8 0 0 1 .7-2 11.2 11.2 0 0 1 1-1.8 16.1 16.1 0 0 0 4.5-2.6 33.4 33.4 0 0 0 3.2-3.3l2.9-3.4a17 17 0 0 1 3.4-3.1l1.4-.7 2.1-.8 2.3-.9 2.1-1.1a7.6 7.6 0 0 0 1.6-1.4 2 2 0 0 0 .6-1.5v-1.3a1.7 1.7 0 0 0-.6-1.2l-.8-.3-1.2-.5-1.2-.6-.7-.3-2.1-1.2-2.6-1.9a25.6 25.6 0 0 0-2.5-1.6 3 3 0 0 0-1.8-.5h-7.8c-6 0-11.8-.1-17.6.1s-11.6.2-17.6.2c-4.4 0-8.6-.2-12.8-.4a98.4 98.4 0 0 1-12.3-1.4 72.3 72.3 0 0 1-12-2.9 65.3 65.3 0 0 1-11.7-5l-1.4-.7-1.6-1a8 8 0 0 1-1.3-1.3 2.4 2.4 0 0 1-.5-1.6 9.5 9.5 0 0 1 2.1.4l2.4.9 2.1 1 1.5.6c1.5.6 3 1.2 4.7 1.7l5 1.4a30.6 30.6 0 0 0 5.1 1 27.7 27.7 0 0 0 4.9.4h26.4l2.5-.4 3.4-.5 3.6-.6 3.4-.6 2.6-.6 6.9-1.3 7.3-1.6c2.5-.7 4.9-1.3 7.3-2.1a55.3 55.3 0 0 0 6.5-2.8l3.9-1.8 3.7-1.6 4-1.3a25.9 25.9 0 0 1 4.2-.9h.9l1.8-.2h1.8l1-.2 1.9-.3 3.3-.7 4.1-.9 4-1a31.7 31.7 0 0 0 3.3-1.1c1-.2 1.6-.7 1.9-.7h6.5c2.7 0 5.4.5 7.9.7s5.2.5 7.8.5a9.5 9.5 0 0 0 5-1.2 18.3 18.3 0 0 0 4.5-3.5 38.1 38.1 0 0 0 3.9-4.9 54.5 54.5 0 0 0 3.2-5.7 54 54 0 0 0 2.6-5.5c.7-1.8 1.3-3.4 1.7-4.8s.8-2.3 1.2-3.5a28.1 28.1 0 0 1 1-3.1 12.3 12.3 0 0 1 1.2-2.6 6.5 6.5 0 0 1 1.7-2 7.4 7.4 0 0 1 2.6-1.5 10.7 10.7 0 0 1 3.8-.8h3.1c.7 1.6 1.7.9 2.9 1.3l3.6 1.5a16 16 0 0 1 2.9 1.8 2.8 2.8 0 0 1 1.3 2.2 2.2 2.2 0 0 1-.5 1.4z"/></symbol></svg>
